<svg xmlns="http://www.w3.org/2000/svg" viewBox="0 0 64 64" width="64" height="64">
  <!-- Background circle -->
  <circle cx="32" cy="32" r="30" fill="#1db954" stroke="#1ed760" stroke-width="2"/>
  
  <!-- Music note -->
  <path d="M24 45c-3.3 0-6-2.7-6-6s2.7-6 6-6c1.1 0 2.1 0.3 3 0.8V20c0-1.1 0.9-2 2-2h0.2c0.8 0 1.5 0.5 1.8 1.2l8 16c0.3 0.6 0.2 1.3-0.2 1.8s-1.1 0.8-1.8 0.8H29v7.2c-1.4 1.2-3.1 1.8-5 1.8z" fill="white"/>
  
  <!-- Musical notes decoration -->
  <circle cx="45" cy="20" r="2" fill="white" opacity="0.8"/>
  <circle cx="50" cy="15" r="1.5" fill="white" opacity="0.6"/>
  <circle cx="42" cy="15" r="1" fill="white" opacity="0.6"/>
  
  <!-- Sound waves -->
  <path d="M40 28c2-2 2-6 0-8" stroke="white" stroke-width="2" fill="none" opacity="0.7"/>
  <path d="M44 32c3-3 3-9 0-12" stroke="white" stroke-width="2" fill="none" opacity="0.5"/>
</svg>
