<svg xmlns="http://www.w3.org/2000/svg" viewBox="0 0 32 32" width="32" height="32">
  <circle cx="16" cy="16" r="15" fill="#1db954" stroke="#1ed760" stroke-width="1"/>
  <path d="M12 22.5c-1.65 0-3-1.35-3-3s1.35-3 3-3c0.55 0 1.05 0.15 1.5 0.4V10c0-0.55 0.45-1 1-1h0.1c0.4 0 0.75 0.25 0.9 0.6l4 8c0.15 0.3 0.1 0.65-0.1 0.9s-0.55 0.4-0.9 0.4H14.5v3.6c-0.7 0.6-1.55 0.9-2.5 0.9z" fill="white"/>
  <circle cx="22.5" cy="10" r="1" fill="white" opacity="0.8"/>
  <circle cx="25" cy="7.5" r="0.75" fill="white" opacity="0.6"/>
  <path d="M20 14c1-1 1-3 0-4" stroke="white" stroke-width="1" fill="none" opacity="0.7"/>
</svg>
