<svg xmlns="http://www.w3.org/2000/svg" viewBox="0 0 192 192" width="192" height="192">
  <defs>
    <radialGradient id="bgGrad192" cx="50%" cy="50%">
      <stop offset="0%" style="stop-color:#1ed760"/>
      <stop offset="100%" style="stop-color:#1db954"/>
    </radialGradient>
  </defs>
  
  <circle cx="96" cy="96" r="90" fill="url(#bgGrad192)" stroke="#1db954" stroke-width="6"/>
  
  <!-- Main music note -->
  <path d="M72 136c-9.9 0-18-8.1-18-18s8.1-18 18-18c3.3 0 6.3 0.9 9 2.4V60c0-3.3 2.7-6 6-6h0.6c2.4 0 4.5 1.5 5.4 3.6l24 48c0.9 1.8 0.6 3.9-0.6 5.4s-3.3 2.4-5.4 2.4H87v21.6c-4.2 3.6-9.3 5.4-15 5.4z" fill="white"/>
  
  <!-- Decorative elements -->
  <circle cx="135" cy="60" r="6" fill="white" opacity="0.9"/>
  <circle cx="150" cy="45" r="4.5" fill="white" opacity="0.7"/>
  <circle cx="126" cy="45" r="3" fill="white" opacity="0.7"/>
  
  <!-- Sound waves -->
  <path d="M120 84c6-6 6-18 0-24" stroke="white" stroke-width="6" fill="none" opacity="0.8"/>
  <path d="M132 96c9-9 9-27 0-36" stroke="white" stroke-width="6" fill="none" opacity="0.6"/>
  <path d="M144 108c12-12 12-36 0-48" stroke="white" stroke-width="6" fill="none" opacity="0.4"/>
</svg>
